<svg id="Layer_1" data-name="Layer 1" xmlns="http://www.w3.org/2000/svg" viewBox="0 0 512 512"><defs><style>.cls-1{fill:none;stroke:#021e73;stroke-miterlimit:10;stroke-width:18px;}.cls-2{fill:#021e73;}</style></defs><path class="cls-1" d="M249.47,43.93c-14,2.92-51,18.51-51,18.51l0,0c-43.94,16.94-65.12,69.63-47.79,124.88s66.49,86.51,110.56,75.21c0,0,39.55-9.66,50.48-13.72"/><ellipse class="cls-1" cx="280.4" cy="146.36" rx="84.55" ry="107.12" transform="translate(-31.5 93.81) rotate(-18)"/><path class="cls-2" d="M118.29,364.71V340.05a.64.64,0,0,0-.65-.64h-8.13a.47.47,0,0,1-.47-.47V324.39a.47.47,0,0,1,.47-.47h8.13a.64.64,0,0,0,.65-.64v-14a.64.64,0,0,1,.64-.64h16.39a.64.64,0,0,1,.64.64v14a.64.64,0,0,0,.65.64h10a.65.65,0,0,1,.65.64v14.2a.65.65,0,0,1-.65.65h-10a.64.64,0,0,0-.65.64v19.69c0,3.23,1.85,5.66,5,5.66a8.49,8.49,0,0,0,3.82-.87.65.65,0,0,1,.93.4L148.8,377a.61.61,0,0,1-.19.65c-2.28,1.95-6.57,3.43-12.88,3.43C124.41,381.11,118.29,375.45,118.29,364.71Z"/><path class="cls-2" d="M152.48,351.77c0-15.72,11.44-29.23,30.39-29.23,19.18,0,30.5,13.51,30.5,29.23s-11.32,29.34-30.5,29.34C163.92,381.11,152.48,367.48,152.48,351.77Zm42.64,0c0-7.4-4.39-13.52-12.25-13.52s-12,6.12-12,13.52,4.28,13.63,12,13.63S195.12,359.28,195.12,351.77Z"/><path class="cls-2" d="M245.26,360.65l-4.59,5.5a.61.61,0,0,0-.15.41v12.52a.65.65,0,0,1-.64.65H223.37a.64.64,0,0,1-.64-.65V303.31a.64.64,0,0,1,.64-.65h16.51a.65.65,0,0,1,.64.65v41a.64.64,0,0,0,1.15.39l15.64-20.53a.64.64,0,0,1,.51-.26h19.83a.65.65,0,0,1,.5,1.05l-19.42,24a.65.65,0,0,0,0,.78l20.6,29a.65.65,0,0,1-.52,1H258.44a.65.65,0,0,1-.55-.31L246.3,360.73A.64.64,0,0,0,245.26,360.65Z"/><path class="cls-2" d="M310.07,322.54c16.52,0,28.54,12.13,28.54,31.08v3.17a.65.65,0,0,1-.65.64H299.68a.64.64,0,0,0-.62.82c1.37,4.87,6.14,9.11,14,9.11a22.53,22.53,0,0,0,13.09-4.28.65.65,0,0,1,.94.13l6.79,10a.63.63,0,0,1-.11.85c-5.58,4.72-14.57,7-22.9,7-17.22,0-30.5-11.2-30.5-29.34C280.38,335.59,292.62,322.54,310.07,322.54Zm-10.65,23.33h21.45a.63.63,0,0,0,.63-.76c-.73-3.86-3.75-8.82-11.43-8.82-7.25,0-10.34,4.85-11.28,8.79A.64.64,0,0,0,299.42,345.87Z"/><path class="cls-2" d="M385.16,347.49c0-6.81-3.58-9.24-9.12-9.24a13.72,13.72,0,0,0-10.72,5.25.68.68,0,0,0-.14.41v35.17a.65.65,0,0,1-.65.65H348a.65.65,0,0,1-.65-.65V324.56a.65.65,0,0,1,.65-.64h16.5a.65.65,0,0,1,.65.64v4.55a.64.64,0,0,0,1.1.45,25.63,25.63,0,0,1,18.19-7c12.71,0,18.49,7.39,18.49,17.67v38.87a.65.65,0,0,1-.65.65h-16.5a.65.65,0,0,1-.65-.65Z"/><path class="cls-2" d="M181.17,437c0-6.82-3.58-9-9.24-9a13.64,13.64,0,0,0-10.59,5.25.66.66,0,0,0-.15.42v35.17a.65.65,0,0,1-.65.64H144a.65.65,0,0,1-.65-.64V393a.65.65,0,0,1,.65-.64h16.5a.65.65,0,0,1,.65.64v25.8a.64.64,0,0,0,1.1.45,25.63,25.63,0,0,1,18.19-7c12.71,0,18.49,7.16,18.49,17.45v39.1a.64.64,0,0,1-.64.64H181.82a.65.65,0,0,1-.65-.64Z"/><path class="cls-2" d="M208.21,441.49c0-15.71,11.44-29.23,30.38-29.23,19.18,0,30.51,13.52,30.51,29.23s-11.33,29.35-30.51,29.35C219.65,470.84,208.21,457.2,208.21,441.49Zm42.63,0c0-7.39-4.39-13.52-12.25-13.52s-12,6.13-12,13.52,4.27,13.63,12,13.63S250.84,449,250.84,441.49Z"/><path class="cls-2" d="M280.72,450.69a.64.64,0,0,1,.94-.18c4.36,3.53,12.78,6.92,19.09,6.92,5.31,0,7.51-1.73,7.51-4.15,0-2.89-3.81-3.93-9.59-4.86-9.47-1.61-22.88-3.58-22.88-17.79,0-9.82,8.44-18.37,23.92-18.37a39.39,39.39,0,0,1,22.86,7.05.64.64,0,0,1,.18.85l-6.12,10.59a.65.65,0,0,1-1,.17,25.27,25.27,0,0,0-15.84-5.6c-4.15,0-7,1.38-7,3.81s3,3.46,8.89,4.5c9.48,1.62,23.57,3.93,23.57,18.72,0,10.63-9.36,18.49-25.42,18.49-9.7,0-19.74-3.2-25.69-8.2a.63.63,0,0,1-.13-.82Z"/><path class="cls-2" d="M338.07,454.43V429.77a.65.65,0,0,0-.65-.64h-7.95a.65.65,0,0,1-.65-.64v-14.2a.64.64,0,0,1,.65-.64h7.95a.65.65,0,0,0,.65-.65V399a.63.63,0,0,1,.64-.64H355.1a.63.63,0,0,1,.64.64v14a.65.65,0,0,0,.64.65h10a.64.64,0,0,1,.65.64v14.2a.65.65,0,0,1-.65.64h-10a.64.64,0,0,0-.64.64v19.69c0,3.24,1.85,5.66,5,5.66a8.66,8.66,0,0,0,3.82-.86.64.64,0,0,1,.93.4l3.12,12.1a.62.62,0,0,1-.19.64c-2.28,2-6.57,3.44-12.88,3.44C344.19,470.84,338.07,465.18,338.07,454.43Z"/></svg>