<svg id="Layer_1" data-name="Layer 1" xmlns="http://www.w3.org/2000/svg" viewBox="0 0 1252 940"><defs><style>.cls-1{fill:#fff;}.cls-2{fill:#4cb1f7;}.cls-3{fill:#0528f2;}.cls-4{fill:#ffc700;}.cls-5,.cls-6{fill:#001131;}.cls-6,.cls-8{stroke:#001131;}.cls-10,.cls-11,.cls-12,.cls-13,.cls-14,.cls-6,.cls-7,.cls-8,.cls-9{stroke-miterlimit:10;}.cls-10,.cls-11,.cls-12,.cls-13,.cls-14,.cls-7,.cls-8,.cls-9{fill:none;}.cls-13,.cls-7{stroke:#0528f2;}.cls-7{stroke-width:13.95px;}.cls-10,.cls-11,.cls-12,.cls-13,.cls-14,.cls-8,.cls-9{stroke-width:14px;}.cls-9{stroke:#021e73;}.cls-10{stroke:#fff;}.cls-11{stroke:#4cb1f7;}.cls-12{stroke:#ffc700;}.cls-14{stroke:#000;}</style></defs><rect class="cls-1" x="10.58" y="9.86" width="300" height="300"/><rect x="632.23" y="319.95" width="300" height="300"/><rect class="cls-2" x="10.58" y="630.05" width="300" height="300"/><rect class="cls-2" x="321.41" y="9.95" width="300" height="300"/><rect class="cls-3" x="10.58" y="319.95" width="300" height="300"/><rect class="cls-1" x="321.41" y="630.05" width="300" height="300"/><rect class="cls-4" x="632.23" y="9.95" width="300" height="300"/><rect class="cls-1" x="943.06" y="319.95" width="300" height="300"/><rect class="cls-5" x="632.23" y="630.05" width="300" height="300"/><rect class="cls-3" x="943.06" y="9.95" width="300" height="300"/><rect class="cls-6" x="321.41" y="319.95" width="300" height="300"/><rect class="cls-3" x="943.06" y="630.05" width="300" height="300"/><path class="cls-7" d="M156,83.66c-9.75,2-35.48,12.88-35.48,12.88l0,0C90,108.34,75.22,145,87.28,183.46s46.27,60.2,76.94,52.33c0,0,27.51-6.72,35.12-9.55"/><ellipse class="cls-7" cx="177.55" cy="154.94" rx="58.83" ry="74.54" transform="translate(-39.19 62.45) rotate(-18)"/><path class="cls-8" d="M466.86,83.76c-9.75,2-35.48,12.88-35.48,12.88h0c-30.57,11.79-45.31,48.45-33.25,86.9s46.27,60.2,76.94,52.34c0,0,27.51-6.72,35.12-9.55"/><ellipse class="cls-8" cx="488.38" cy="155.04" rx="58.83" ry="74.54" transform="translate(-24.01 158.51) rotate(-18)"/><path class="cls-9" d="M777.69,83.76c-9.75,2-35.48,12.88-35.48,12.88h0c-30.57,11.79-45.31,48.45-33.25,86.9s46.27,60.2,76.94,52.34c0,0,27.51-6.72,35.12-9.55"/><ellipse class="cls-9" cx="799.21" cy="155.04" rx="58.83" ry="74.54" transform="translate(-8.79 254.56) rotate(-18)"/><path class="cls-10" d="M1088.52,83.76c-9.75,2-35.48,12.88-35.48,12.88h0c-30.57,11.79-45.31,48.45-33.25,86.9s46.27,60.2,76.93,52.34c0,0,27.52-6.72,35.13-9.55"/><ellipse class="cls-10" cx="1110.04" cy="155.04" rx="58.83" ry="74.54" transform="translate(6.42 350.61) rotate(-18)"/><path class="cls-11" d="M156,393.66c-9.75,2-35.48,12.88-35.48,12.88l0,0C90,418.34,75.22,455,87.28,493.46s46.27,60.2,76.94,52.33c0,0,27.51-6.72,35.12-9.55"/><ellipse class="cls-11" cx="177.55" cy="464.94" rx="58.83" ry="74.54" transform="translate(-134.99 77.62) rotate(-18)"/><path class="cls-12" d="M466.86,393.76c-9.75,2-35.48,12.88-35.48,12.88h0c-30.57,11.79-45.31,48.45-33.25,86.9s46.27,60.2,76.94,52.34c0,0,27.51-6.72,35.12-9.55"/><ellipse class="cls-12" cx="488.38" cy="465.04" rx="58.83" ry="74.54" transform="translate(-119.8 173.68) rotate(-18)"/><path class="cls-10" d="M777.69,393.76c-9.75,2-35.48,12.88-35.48,12.88h0c-30.57,11.79-45.31,48.45-33.25,86.9s46.27,60.2,76.94,52.34c0,0,27.51-6.72,35.12-9.55"/><ellipse class="cls-10" cx="799.21" cy="465.04" rx="58.83" ry="74.54" transform="translate(-104.59 269.73) rotate(-18)"/><path class="cls-9" d="M1088.52,393.76c-9.75,2-35.48,12.88-35.48,12.88h0c-30.57,11.79-45.31,48.45-33.25,86.9s46.27,60.2,76.93,52.34c0,0,27.52-6.72,35.13-9.55"/><ellipse class="cls-9" cx="1110.04" cy="465.04" rx="58.83" ry="74.54" transform="translate(-89.37 365.78) rotate(-18)"/><path class="cls-13" d="M156,703.66c-9.75,2-35.48,12.88-35.48,12.88l0,0C90,728.34,75.22,765,87.28,803.46s46.27,60.2,76.94,52.33c0,0,27.51-6.72,35.12-9.55"/><ellipse class="cls-13" cx="177.55" cy="774.94" rx="58.83" ry="74.54" transform="translate(-230.78 92.8) rotate(-18)"/><path class="cls-14" d="M466.86,703.76c-9.75,2-35.48,12.88-35.48,12.88h0c-30.57,11.79-45.31,48.45-33.25,86.9s46.27,60.2,76.94,52.34c0,0,27.51-6.72,35.12-9.55"/><ellipse class="cls-14" cx="488.38" cy="775.04" rx="58.83" ry="74.54" transform="translate(-215.6 188.85) rotate(-18)"/><path class="cls-13" d="M777.69,703.76c-9.75,2-35.48,12.88-35.48,12.88h0c-30.57,11.79-45.31,48.45-33.25,86.9s46.27,60.2,76.94,52.34c0,0,27.51-6.72,35.12-9.55"/><ellipse class="cls-13" cx="799.21" cy="775.04" rx="58.83" ry="74.54" transform="translate(-200.38 284.9) rotate(-18)"/><path class="cls-12" d="M1088.52,703.76c-9.75,2-35.48,12.88-35.48,12.88h0c-30.57,11.79-45.31,48.45-33.25,86.9s46.27,60.2,76.93,52.34c0,0,27.52-6.72,35.13-9.55"/><ellipse class="cls-12" cx="1110.04" cy="775.04" rx="58.83" ry="74.54" transform="translate(-185.17 380.95) rotate(-18)"/></svg>