<svg xmlns="http://www.w3.org/2000/svg" xmlns:xlink="http://www.w3.org/1999/xlink" width="149.188" height="190.293" viewBox="0 0 149.188 190.293"><defs><style>.a,.b,.c,.d{stroke:#000;stroke-miterlimit:10;stroke-width:6.062px;}.a{fill:url(#a);}.c{fill:#f5cb00;}.d{fill:#fff;}</style><linearGradient id="a" x1="0.5" x2="0.5" y2="1" gradientUnits="objectBoundingBox"><stop offset="0" stop-color="#071ae5"/><stop offset="1" stop-color="#0f4fd8"/></linearGradient></defs><g transform="translate(-1203.844 -6916.854)"><path class="a" d="M7077.111-9767.771l-90.816,2.7c-8.259,0-24.414-4.03-24.414-17.654v-148.92c0-14.99,16.155-17.656,24.414-17.656l90.816,2.7a14.953,14.953,0,0,1,14.954,14.954v148.92A14.954,14.954,0,0,1,7077.111-9767.771Z" transform="translate(-5755.006 16869.186)"/><rect class="a" width="134.118" height="184.231" rx="15.406" transform="translate(1215.883 6919.885)"/><rect class="b" width="20.432" height="131.706" rx="10.216" transform="translate(1252.382 6946.327)"/><ellipse class="c" cx="35.216" cy="55.759" rx="35.216" ry="55.759" transform="translate(1268.84 6957.803)"/><ellipse class="c" cx="36.447" cy="57.708" rx="36.447" ry="57.708" transform="translate(1254.453 6955.854)"/><path class="d" d="M7055.846-9913.332" transform="translate(-5755.006 16869.186)"/><path class="d" d="M7045.906-9913.332" transform="translate(-5755.006 16869.186)"/><line class="d" x2="17.206" y2="2.319" transform="translate(1290.9 6955.854)"/><line class="d" y1="1.949" x2="13.156" transform="translate(1290.9 7069.319)"/></g></svg>