<svg xmlns="http://www.w3.org/2000/svg" width="540.5" height="510.051" viewBox="0 0 540.5 510.051"><defs><style>.a{fill:#021e73;}.b,.d,.h,.i,.k,.l{fill:none;}.b{stroke:#000;stroke-width:1.5px;}.b,.d,.g,.i,.k,.l{stroke-miterlimit:10;}.c{fill:#ffc700;}.d,.g,.i,.k{stroke:#fff;}.d,.g,.h,.i,.l{stroke-width:4px;}.e,.g{fill:#fff;}.f{fill:#edeeef;}.h{stroke:#ff6498;stroke-linejoin:round;}.h,.i{stroke-linecap:round;}.j{fill:#4cb1f7;}.k{stroke-width:3px;}.l{stroke:#021e73;}</style></defs><g transform="translate(-91.32 -187.43)"><circle class="a" cx="119.315" cy="119.315" r="119.315" transform="translate(361.404 217.545)"/><circle class="b" cx="119.315" cy="119.315" r="119.315" transform="translate(361.404 217.545)"/><rect class="a" width="86.746" height="298.859" transform="translate(437.346 187.43)"/><rect class="a" width="86.746" height="298.859" transform="translate(329.626 299.703) rotate(-60)"/><rect class="a" width="86.746" height="298.859" transform="translate(372.991 449.125) rotate(-120)"/><circle class="c" cx="29.827" cy="29.827" r="29.827" transform="translate(450.892 307.033)"/><path class="d" d="M552.92,370.8A29.827,29.827,0,0,1,582.747,341" transform="translate(-102.028 -33.944)"/><path class="a" d="M431.724,722.6c-10.282-107.5-74.119-266.54-74.119-266.54L301.8,421.63l6.169,85.975,8.312,82.08L386.863,748.47l64.5-20.253Z" transform="translate(-46.523 -51.765)"/><path class="a" d="M327.785,437.662s12.58,205.328-22.948,302.544l7.416,10.906H249.039S242.13,489.946,242.13,433.58Z" transform="translate(-33.334 -54.407)"/><path class="c" d="M313.909,229.675v26.687l-33.059,8.125V219.455l33.059-8.125Z" transform="translate(-41.892 -5.283)"/><circle class="e" cx="1.589" cy="1.589" r="1.589" transform="translate(251.756 231.154)"/><circle class="e" cx="1.503" cy="1.503" r="1.503" transform="translate(265.412 231.239)"/><path class="d" d="M311.63,248.5V234.88h6.824" transform="translate(-48.695 -10.488)"/><line class="d" x2="6.824" transform="translate(251.679 224.392)"/><line class="b" transform="translate(270.818 222.164)"/><path class="f" d="M282.338,243.182v4.728a4.612,4.612,0,0,1-4.619-4.619,3.792,3.792,0,0,1,0-.421C277.991,240,282.338,240.3,282.338,243.182Z" transform="translate(-41.199 -11.811)"/><path class="g" d="M282.339,248.6a4.612,4.612,0,0,1-4.619-4.619" transform="translate(-41.2 -12.499)"/><path class="h" d="M305.264,257.674A4.674,4.674,0,0,1,300.59,253" transform="translate(-46.255 -14.493)"/><line class="g" x1="33.059" y2="8.125" transform="translate(238.958 251.08)"/><line class="i" x1="2.983" y2="0.732" transform="translate(259.951 238.024)"/><path class="d" d="M316.088,220s-8.234,6.13-24.647,4.261c0,0,0,10.82-5.811,14.13" transform="translate(-42.949 -7.199)"/><path class="d" d="M312.774,231.149s13.406-17.449-5.982-22.333-28.323,4.674-28.323,4.674-18.337,3.015,1.114,36.565" transform="translate(-39.635 -4.42)"/><path class="j" d="M242.16,328.284v72.187L344.423,425.6v-80.39a61.928,61.928,0,0,0-47.142-60.136h0a44.495,44.495,0,0,0-55.12,43.209Z" transform="translate(-33.34 -21.298)"/><path class="b" d="M345.578,438.82s12.58,205.328-22.948,302.544" transform="translate(-51.127 -55.565)"/><path class="d" d="M245.063,303.69s-55.712,73.916-32.81,117.515,133.359-22.021,134.606-33.651-24.74-5.406-24.74-5.406,3.116-21.188-10.127-.413l-49.932,5.4,16.195-39.05" transform="translate(-25.509 -25.697)"/><path class="d" d="M335.26,396.578l.818-2.524a17.285,17.285,0,0,1,13.554-11.685l34.275-5.772a12.463,12.463,0,0,1,13.367,7.089h0a.615.615,0,0,0,.639.351l71.626-10.687.9-3.069a2.711,2.711,0,0,1,2.952-1.916l14.5,1.9a2.54,2.54,0,0,1,2.212,2.524v1.745a2.547,2.547,0,0,1-1.612,2.337l-12.214,4.814a4.066,4.066,0,0,1-4.674-1.246l-1.457-1.815-71.665,12.417a.623.623,0,0,0-.436.312l-.265.506a32.561,32.561,0,0,1-22.839,16.724l-6.59,1.215" transform="translate(-53.918 -39.987)"/><path class="k" d="M330.53,292.05s29.25,12.464,72.249,73.433" transform="translate(-52.873 -23.124)"/><path class="d" d="M373.44,429.5s49.729,17.449,63.439,4.565,17.87-47.743,17.87-47.743" transform="translate(-62.357 -43.961)"/><path class="d" d="M464.66,362.474s3.007-29.951,2.7-38.676c0,0,5.149,2.8,9.745,1.246,0,0,3.03,4.985,5.211,4.674s1.246-10.594-7.167-21.188-45.889-10.524-56.865,53.944" transform="translate(-72.268 -25.614)"/><path class="c" d="M243.261,719.627c-2.726-7.618-10.7,2.438-10.7,2.438s9.6-20.4,0-25.028c-4.736-2.282-7.229.405-8.569,3.708,4.915-29.663,5.975-86.878-13.858-88.873-21.663-2.181-14.247,52.791-14.247,52.791s-5.99-15.782-13.609-8.709,7.073,53.328,7.073,53.328c-1.628-4.892-10.337-8.709-13.6,0S185,736.492,185,736.492l43.015,7.112S245.98,727.245,243.261,719.627Z" transform="translate(-18.543 -93.801)"/><path class="j" d="M237.128,824.031H175.566L161.95,769.02h88.795Z" transform="translate(-15.611 -128.55)"/><line class="l" x2="205.289" transform="translate(91.32 695.481)"/><line class="l" x2="88.787" transform="translate(146.339 640.471)"/></g></svg>