<svg xmlns="http://www.w3.org/2000/svg" width="285.8" height="180.5" viewBox="0 0 285.8 180.5"><defs><style>.a{fill:#4cb1f7;}.b{fill:#fff;}.c,.f{fill:none;stroke-miterlimit:10;stroke-width:1.5px;}.c{stroke:#000;}.d{fill:#021e73;}.e{fill:#d6d6d6;}.f{stroke:#fff;}</style></defs><g transform="translate(0 -0.1)"><rect class="a" width="253.115" height="147.815" transform="translate(32.685 32.785)"/><rect class="b" width="253.115" height="147.815" transform="translate(0 0.1)"/><path class="c" d="M253.115.2V148.015L0,147.857" transform="translate(0 -0.021)"/><circle class="d" cx="46.525" cy="46.525" r="46.525" transform="translate(80.032 27.487)"/><circle class="e" cx="9.49" cy="9.49" r="9.49" transform="translate(19.043 110.002)"/><circle class="e" cx="9.49" cy="9.49" r="9.49" transform="translate(215.091 19.033)"/><circle class="e" cx="9.49" cy="9.49" r="9.49" transform="translate(215.091 110.002)"/><circle class="e" cx="9.49" cy="9.49" r="9.49" transform="translate(19.043 19.033)"/><path class="f" d="M156.509,86.578a13.2,13.2,0,1,1,13.2-13.2" transform="translate(-29.975 -12.567)"/><path class="f" d="M156.509,93.56a13.2,13.2,0,1,1-13.2,13.191" transform="translate(-29.975 -19.549)"/><line class="f" y2="67.941" transform="translate(126.557 40.037)"/></g></svg>