<svg xmlns="http://www.w3.org/2000/svg" width="175.125" height="199.446" viewBox="0 0 175.125 199.446"><defs><style>.a{fill:#4cb1f7;}.b{fill:none;stroke:#000;stroke-miterlimit:10;stroke-width:1.5px;}.c{fill:#fff;}.d{fill:#0528f2;}</style></defs><path class="a" d="M59.12,40.26V207.852h128.7V86.421L141.661,40.26Z" transform="translate(-13.446 -9.157)"/><path class="b" d="M59.12,221.442h128.7V100.01" transform="translate(-13.446 -22.746)"/><line class="b" x2="53.755" transform="translate(68.573 102.372)"/><line class="b" x2="53.755" transform="translate(68.573 113.69)"/><line class="b" x2="53.755" transform="translate(68.573 125.009)"/><line class="b" x2="26.877" transform="translate(68.573 136.327)"/><path class="c" d="M0,0V167.592H128.7V46.168L82.533,0Z"/><path class="b" d="M0,181.184H128.7V59.76" transform="translate(0 -13.592)"/><path class="d" d="M153,46.168,106.83,0V46.168Z" transform="translate(-24.297)"/><line class="b" x2="53.747" transform="translate(37.477 71.277)"/><line class="b" x2="53.747" transform="translate(37.477 82.595)"/><line class="b" x2="53.747" transform="translate(37.477 93.913)"/><line class="b" x2="26.87" transform="translate(37.477 105.223)"/></svg>