<svg xmlns="http://www.w3.org/2000/svg" width="662.98" height="755.45" viewBox="0 0 662.98 755.45"><defs><style>.a,.b,.g,.i,.j,.k,.l,.n{fill:none;}.b,.f,.g,.j,.k,.n{stroke:#001131;stroke-miterlimit:10;}.b{stroke-width:5px;}.c{fill:#1d3df2;}.d{fill:#300c6a;}.e{fill:#e4e4e4;}.g,.i,.j{stroke-width:3px;}.h{fill:#edeeef;}.i{stroke:#e01b32;}.i,.j,.l{stroke-linecap:round;}.i,.l{stroke-linejoin:round;}.k,.l{stroke-width:4px;}.l{stroke:#0528f2;}.m{fill:#0528f2;}.n{stroke-width:6px;}.o{fill:#ffc700;}.p{fill:#4cb1f7;}</style></defs><g transform="translate(-170.02 -88.26)"><path class="a" d="M245.01,772.63l23.63,20.51,63-80.56,28.35,23.73L509.62,539.56l132.3,233.07,36.23-40.03L744.3,841.21H189.89Z"/><line class="b" x1="594.15" transform="translate(170.02 841.21)"/><path class="c" d="M321.33,431.58S84,732.9,507.55,722.1l16.8,14.4V635.39L379.21,603.31l17.05-186"/><path class="d" d="M384.29,547.9c-43.82,2.3-78.92,60.74-78.92,132.51,0,1.58,0,3.14.06,4.7,32.31,20.78,82.86,34.79,159,37a209.112,209.112,0,0,0,4.12-41.67A202.44,202.44,0,0,0,460,621.16l-80.77-17.85Z"/><path class="c" d="M342.68,436.82s-16.15,263.59,29.46,388.39l-9.52,14h81.12s8.87-335.27,8.87-407.63Z"/><path class="e" d="M361.88,232.88v34.26l42.44,10.43V219.76l-42.44-10.43Z" transform="translate(4.905)"/><circle class="f" cx="1.97" cy="1.97" r="1.97" transform="translate(388.927 241.63)"/><circle class="f" cx="1.97" cy="1.97" r="1.97" transform="translate(371.632 241.63)"/><path class="g" d="M401.42,250.37V232.88h-8.76" transform="translate(-22.705 0)"/><line class="g" x1="8.76" transform="translate(384.29 232.88)"/><line class="g" transform="translate(402.79 230.02)"/><path class="h" d="M358.75,241.84v6.07a5.92,5.92,0,0,0,5.93-5.93q0-.27,0-.54C364.33,237.76,358.75,238.14,358.75,241.84Z" transform="translate(47.675 0)"/><path class="g" d="M358.75,247.91a5.92,5.92,0,0,0,5.93-5.93" transform="translate(47.675 0)"/><path class="i" d="M381.19,257.33a6,6,0,0,0,6-6" transform="translate(2.894 0)"/><line class="g" x2="42.44" y2="10.43" transform="translate(366.785 267.14)"/><line class="j" x2="3.83" y2="0.94" transform="translate(378.661 250.38)"/><path class="e" d="M321.33,338.91v92.67l131.28,32.26V360.64a79.5,79.5,0,0,0-60.519-77.2h0a57.12,57.12,0,0,0-70.76,55.47Z"/><path class="k" d="M342.68,436.82s-16.15,263.59,29.46,388.39"/><path class="g" d="M410.467,239.08s5.672-18.89-3.268-26.69-48.475-5.8-48.475-5.8-2.781,27.6,37.946,21c0,0,.586,7.64,7.351,9" transform="translate(0.179)"/><path class="k" d="M417,294.38s59.86,38.41,48.66,142.44-164.27-27.7-168.54-37.3,11.74-17.6,31.47-6.4c0,0-8-6.72-4.27-7.63s11.35,1.76,15.54,10.3l92.73,17.06"/><path class="k" d="M324,387.39H231.56l-40.53-93.71"/><line class="l" y1="77.6" x2="143.2" transform="translate(196.7 226.19)"/><path class="k" d="M339,297.62s-32.81,31-42.52,89.77"/><path class="k" d="M250.76,387.39s23.49,66.53,50.75,73.06"/><path class="k" d="M287.56,387.39S276,371.25,268.3,367.52s-30.87,4.8-27.94,8.8,8.27,1.87,8.27,1.87-1.33,4,1.07,5.06"/><path class="m" d="M761.27,169v-.92A42.53,42.53,0,0,0,699.91,130a89.21,89.21,0,0,0-162.4,42.27A81,81,0,0,0,482.19,249h0a81,81,0,0,0,81,81H749a81,81,0,0,0,81-81h0A81,81,0,0,0,761.27,169Z"/><path class="n" d="M699.91,130a89.12,89.12,0,0,0-73.57-38.74"/><path class="n" d="M761.28,168.07a42.52,42.52,0,0,0-42.52-42.52"/><path class="n" d="M563.16,330H749a81,81,0,0,0,81-81"/><rect class="o" width="86.07" height="86.07" transform="translate(699.12 423.02) rotate(180)"/><path class="o" d="M722.72,343.44l-66.64-66.63-66.63,66.63Z"/><rect class="e" width="86.07" height="86.07" transform="translate(699.12 592.26) rotate(180)"/><path class="e" d="M722.72,512.68l-66.64-66.63-66.63,66.63Z"/><rect class="p" width="86.07" height="86.07" transform="translate(699.713 761.14) rotate(179.57)"/><path class="p" d="M722.66,681.42l-67.13-66.13L589.4,682.42Z"/></g></svg>