<svg xmlns="http://www.w3.org/2000/svg" width="562.179" height="630.49" viewBox="0 0 562.179 630.49"><defs><style>.a{fill:#001131;}.b,.g,.i,.k,.l,.m,.n,.p{fill:none;}.b,.i{stroke:#000;}.b,.d,.g,.i,.l,.m,.n,.p{stroke-miterlimit:10;}.b,.m,.n{stroke-width:4px;}.c,.d{fill:#4cb1f7;}.d,.m{stroke:#001131;}.d,.i,.k{stroke-width:1.5px;}.e{fill:#021e73;}.f{fill:#ffc700;}.g,.l,.n,.p{stroke:#fff;}.g,.l{stroke-width:3px;}.h{fill:#fff;}.j{fill:#edeeef;}.k{stroke:#ff6498;stroke-linejoin:round;}.k,.l{stroke-linecap:round;}.o{fill:#0528f2;}.p{stroke-width:8.98px;}</style></defs><g transform="translate(-156.66 -164.15)"><rect class="a" width="316.027" height="339.408" transform="translate(169.686 183.987)"/><path class="b" d="M486.7,185.47V524.878H170.66" transform="translate(-0.974 -1.483)"/><rect class="c" width="142.15" height="25.038" transform="translate(256.624 173.222)"/><circle class="c" cx="9.648" cy="9.648" r="9.648" transform="translate(318.06 164.15)"/><rect class="c" width="142.15" height="25.038" transform="translate(256.624 173.222)"/><path class="d" d="M406.26,173.9v25.038H264.11" transform="translate(-7.476 -0.678)"/><circle class="c" cx="9.648" cy="9.648" r="9.648" transform="translate(318.06 164.15)"/><line class="b" y2="269.245" transform="translate(327.709 523.395)"/><line class="b" x2="342.088" transform="translate(156.66 792.64)"/><path class="e" d="M692.643,427.6l-90.8-5.973-23.521,92.754L524.33,808.694h73.494l-8.56-15.333Z" transform="translate(-25.582 -17.915)"/><path class="e" d="M712.92,807.666l4.466-167.476-71.456,13.4L662.519,823.9h61.073Z" transform="translate(-34.043 -33.122)"/><path class="a" d="M691.018,645.51l-45.088,8.448,1.991,20.469c37.524-5.061,63.362-15.138,63.362-15.138Z" transform="translate(-34.043 -33.493)"/><path class="a" d="M595.068,580.19s-11.37,3.508-26.415,9.23L554.13,668.626c26.48,4.829,52.28,4.81,74.824,2.661l16.152-57.137Z" transform="translate(-27.656 -28.948)"/><path class="f" d="M591.441,430,502,615.442s106.068,55.825,211.568,25.68V449.092Z" transform="translate(-24.028 -18.498)"/><path class="e" d="M633.89,230.025v13.761a23.111,23.111,0,0,0,17.593,22.441l21.885,5.378V217.818l-18.2-4.475a17.176,17.176,0,0,0-21.279,16.682Z" transform="translate(-33.205 -3.388)"/><path class="g" d="M633.89,246.1a23.111,23.111,0,0,0,17.593,22.441l21.885,5.378" transform="translate(-33.205 -5.702)"/><circle class="h" cx="1.535" cy="1.535" r="1.535" transform="translate(621.452 235.076)"/><circle class="h" cx="1.535" cy="1.535" r="1.535" transform="translate(605.235 235.076)"/><path class="g" d="M644.93,247.583V231.31h-8.15" transform="translate(-33.406 -4.673)"/><line class="g" x1="8.15" transform="translate(616.828 226.637)"/><line class="i" transform="translate(602.108 223.976)"/><path class="j" d="M673.53,240.063v5.657a5.527,5.527,0,0,0,5.517-5.527v-.5C678.712,236.267,673.53,236.63,673.53,240.063Z" transform="translate(-35.963 -5.09)"/><path class="g" d="M673.53,245.937a5.527,5.527,0,0,0,5.517-5.527" transform="translate(-35.963 -5.306)"/><path class="k" d="M650.33,250.84a3.647,3.647,0,0,0,5.173,0" transform="translate(-34.349 -6.032)"/><line class="l" x2="3.573" y2="0.884" transform="translate(611.524 242.919)"/><path class="g" d="M640.158,262.56l-.633.288A12.9,12.9,0,0,1,621.289,250.7c.716-20.525,5.583-49,26.982-46.958,0,0,21.828-5.006,30.574,15.091s-1.982,29.773-6.392,32.006" transform="translate(-32.328 -2.716)"/><path class="g" d="M633.39,236.256s16.478-2.894,18.348-13.956c0,0,8.169,13.668,19.539,14.989" transform="translate(-33.17 -4.046)"/><path class="e" d="M598.13,333.366v86.213L720.266,449.6V353.584a73.968,73.968,0,0,0-56.308-71.828h0a53.146,53.146,0,0,0-65.827,51.611Z" transform="translate(-30.717 -8.076)"/><path class="m" d="M502,629.31s106.068,55.825,211.568,25.68" transform="translate(-24.028 -32.365)"/><path class="n" d="M686.365,293s59.845,41.869,60.068,104.207c.326,90.567-140.326,8.932-144.876-5.955l-4.55-14.887s-18.794-7.732-14.328-10.57,136.465,25.214,136.465,25.214" transform="translate(-29.594 -8.965)"/><path class="n" d="M612.881,293S578.5,317.517,564.36,381.53c0,0-23.074-31.96-31.262-44.269s-14.887-4.112-14.887-4.112-9.528-14.1-16.31-8.15,11.342,108.078,77.467,120.285" transform="translate(-23.929 -8.965)"/><line class="n" x1="138.493" y1="68.172" transform="translate(422.584 296.437)"/><rect class="o" width="161.372" height="161.372" transform="translate(209.61 238.965)"/><path class="p" d="M298.2,372.383c-17.464,5.052-37.04-7.583-44.148-29.466s1.34-43.6,18.4-49.787" transform="translate(-6.601 -8.974)"/><line class="p" x1="22.228" y2="8.048" transform="translate(265.854 276.108)"/><line class="p" y1="6.559" x2="22.721" transform="translate(291.599 356.85)"/><ellipse class="p" cx="33.504" cy="42.455" rx="33.504" ry="42.455" transform="translate(256.215 286.452) rotate(-18)"/></g></svg>